<svg width="16" height="16" viewBox="0 0 16 16" fill="none" xmlns="http://www.w3.org/2000/svg">
<g clip-path="url(#clip0_7_504)">
<path d="M9.33347 7.3334C9.04716 6.95065 8.68189 6.63395 8.26243 6.40478C7.84297 6.1756 7.37913 6.03932 6.90237 6.00518C6.4256 5.97103 5.94708 6.03982 5.49924 6.20688C5.0514 6.37394 4.64472 6.63536 4.3068 6.9734L2.3068 8.9734C1.69961 9.60208 1.36363 10.4441 1.37122 11.3181C1.37881 12.1921 1.72938 13.0281 2.3474 13.6461C2.96543 14.2642 3.80147 14.6147 4.67546 14.6223C5.54945 14.6299 6.39146 14.2939 7.02013 13.6867L8.16013 12.5467M6.66679 8.66672C6.95309 9.04948 7.31836 9.36618 7.73782 9.59535C8.15728 9.82452 8.62113 9.9608 9.09789 9.99495C9.57465 10.0291 10.0532 9.9603 10.501 9.79325C10.9489 9.62619 11.3555 9.36477 11.6935 9.02672L13.6935 7.02672C14.3006 6.39805 14.6366 5.55604 14.629 4.68205C14.6214 3.80806 14.2709 2.97202 13.6529 2.354C13.0348 1.73597 12.1988 1.38541 11.3248 1.37781C10.4508 1.37022 9.6088 1.7062 8.98012 2.31339L7.83346 3.45339" stroke="#6A6A6A" stroke-width="1.4" stroke-linecap="round" stroke-linejoin="round"/>
</g>
<defs>
<clipPath id="clip0_7_504">
<rect width="16" height="16" fill="white"/>
</clipPath>
</defs>
</svg>
