<svg width="16" height="16" viewBox="0 0 16 16" fill="none" xmlns="http://www.w3.org/2000/svg">
<path d="M6.33341 6.00004H6.34008M9.66675 6.00004H9.67341M6.33341 8.66671C6.55067 8.88844 6.80998 9.06459 7.09617 9.18485C7.38235 9.30511 7.68966 9.36705 8.00008 9.36705C8.31051 9.36705 8.61781 9.30511 8.904 9.18485C9.19018 9.06459 9.4495 8.88844 9.66675 8.66671M2.66675 14V5.33337C2.66675 4.80294 2.87746 4.29423 3.25253 3.91916C3.62761 3.54409 4.13631 3.33337 4.66675 3.33337H11.3334C11.8638 3.33337 12.3726 3.54409 12.7476 3.91916C13.1227 4.29423 13.3334 4.80294 13.3334 5.33337V9.33337C13.3334 9.86381 13.1227 10.3725 12.7476 10.7476C12.3726 11.1227 11.8638 11.3334 11.3334 11.3334H5.33341L2.66675 14Z" stroke="#6A6A6A" stroke-width="1.2" stroke-linecap="round" stroke-linejoin="round"/>
</svg>
