<svg width="16" height="16" viewBox="0 0 16 16" fill="none" xmlns="http://www.w3.org/2000/svg">
<path d="M2 8H2.66667M8 2V2.66667M13.3333 8H14M3.73333 3.73333L4.2 4.2M12.2667 3.73333L11.8 4.2M6.46663 11.3333H9.5333M6 10.6667C5.44031 10.2469 5.02689 9.66168 4.81829 8.99389C4.60969 8.32611 4.61649 7.60961 4.83772 6.94591C5.05896 6.2822 5.48341 5.70493 6.05097 5.29586C6.61852 4.88679 7.30039 4.66667 8 4.66667C8.69961 4.66667 9.38148 4.88679 9.94903 5.29586C10.5166 5.70493 10.941 6.2822 11.1623 6.94591C11.3835 7.60961 11.3903 8.32611 11.1817 8.99389C10.9731 9.66168 10.5597 10.2469 10 10.6667C9.73971 10.9243 9.54373 11.2396 9.42791 11.5871C9.3121 11.9345 9.2797 12.3044 9.33333 12.6667C9.33333 13.0203 9.19286 13.3594 8.94281 13.6095C8.69276 13.8595 8.35362 14 8 14C7.64638 14 7.30724 13.8595 7.05719 13.6095C6.80714 13.3594 6.66667 13.0203 6.66667 12.6667C6.7203 12.3044 6.6879 11.9345 6.57209 11.5871C6.45627 11.2396 6.26029 10.9243 6 10.6667Z" stroke="#6A6A6A" stroke-width="1.2" stroke-linecap="round" stroke-linejoin="round"/>
</svg>
