<svg width="13" height="13" viewBox="0 0 13 13" fill="none" xmlns="http://www.w3.org/2000/svg">
<path d="M5.60329 0.684183C5.97013 -0.0589848 7.02987 -0.0589839 7.39671 0.684184L8.58505 3.09164C8.73059 3.38649 9.01178 3.59095 9.33713 3.63851L11.9962 4.02717C12.8161 4.14701 13.1429 5.15485 12.5493 5.73302L10.6268 7.60556C10.3909 7.8353 10.2833 8.16643 10.3389 8.49096L10.7924 11.1352C10.9325 11.9521 10.075 12.5751 9.34137 12.1893L6.96545 10.9398C6.67407 10.7866 6.32593 10.7866 6.03455 10.9398L3.65863 12.1893C2.925 12.5751 2.06745 11.9521 2.20757 11.1352L2.66109 8.49096C2.71675 8.16643 2.60908 7.8353 2.37321 7.60556L0.450678 5.73301C-0.142915 5.15485 0.183869 4.14701 1.00378 4.02717L3.66287 3.63851C3.98822 3.59095 4.26941 3.38649 4.41495 3.09164L5.60329 0.684183Z" fill="#0088CC"/>
</svg>
