<svg width="16" height="16" viewBox="0 0 16 16" fill="none" xmlns="http://www.w3.org/2000/svg">
<g clip-path="url(#clip0_6_228)">
<path d="M10.6667 14V12.6667C10.6667 11.9594 10.3857 11.2811 9.88564 10.781C9.38554 10.281 8.70726 10 8.00002 10H3.33335C2.62611 10 1.94783 10.281 1.44774 10.781C0.947639 11.2811 0.666687 11.9594 0.666687 12.6667V14M11.3334 7.33333L12.6667 8.66667L15.3334 6M8.33335 4.66667C8.33335 6.13943 7.13945 7.33333 5.66669 7.33333C4.19393 7.33333 3.00002 6.13943 3.00002 4.66667C3.00002 3.19391 4.19393 2 5.66669 2C7.13945 2 8.33335 3.19391 8.33335 4.66667Z" stroke="#6A6A6A" stroke-width="1.4" stroke-linecap="round" stroke-linejoin="round"/>
</g>
<defs>
<clipPath id="clip0_6_228">
<rect width="16" height="16" fill="white"/>
</clipPath>
</defs>
</svg>
