<svg width="20" height="20" viewBox="0 0 20 20" fill="none" xmlns="http://www.w3.org/2000/svg">
<path d="M13.3334 17.5V15.8333C13.3334 14.9493 12.9822 14.1014 12.3571 13.4763C11.7319 12.8512 10.8841 12.5 10 12.5H4.16671C3.28265 12.5 2.43481 12.8512 1.80968 13.4763C1.18456 14.1014 0.833374 14.9493 0.833374 15.8333V17.5M14.1667 9.16667L15.8334 10.8333L19.1667 7.5M10.4167 5.83333C10.4167 7.67428 8.92432 9.16667 7.08337 9.16667C5.24242 9.16667 3.75004 7.67428 3.75004 5.83333C3.75004 3.99238 5.24242 2.5 7.08337 2.5C8.92432 2.5 10.4167 3.99238 10.4167 5.83333Z" stroke="white" stroke-width="1.6" stroke-linecap="round" stroke-linejoin="round"/>
</svg>
