{
  "accessors": [
    {
      "bufferView": 2,
      "componentType": 5126,
      "count": 1405,
      "max": [
        5.044952869415283,
        3.228074073791504,
        9.828036308288574
      ],
      "min": [
        -4.9444780349731445,
        -3.228074073791504,
        -0.045389000326395035
      ],
      "type": "VEC3",
      "byteOffset": 0
    },
    {
      "bufferView": 2,
      "byteOffset": 16860,
      "componentType": 5126,
      "count": 1405,
      "max": [
        0.9982295036315918,
        0.9989432096481323,
        0.9999717473983765
      ],
      "min": [
        -0.9985859990119934,
        -0.9989432096481323,
        -0.9999925494194031
      ],
      "type": "VEC3"
    },
    {
      "bufferView": 3,
      "componentType": 5126,
      "count": 1405,
      "max": [
        0.9989938139915466,
        0.9999808073043823,
        0.992313027381897,
        1
      ],
      "min": [
        -0.9995778799057007,
        -0.9999997615814209,
        -0.9841717481613159,
        1
      ],
      "type": "VEC4",
      "byteOffset": 0
    },
    {
      "bufferView": 1,
      "componentType": 5126,
      "count": 1405,
      "max": [
        0.9885129928588867,
        0.9888669848442078
      ],
      "min": [
        0.00897900015115738,
        0.03013000078499317
      ],
      "type": "VEC2",
      "byteOffset": 0
    },
    {
      "bufferView": 0,
      "componentType": 5125,
      "count": 7428,
      "type": "SCALAR",
      "byteOffset": 0
    }
  ],
  "asset": {
    "extras": {
      "author": "Xabier Garcia (https://sketchfab.com/XabS11)",
      "license": "CC-BY-4.0 (http://creativecommons.org/licenses/by/4.0/)",
      "source": "https://sketchfab.com/3d-models/cartoony-rubber-ducky-8a6e661916b74f9caa1c20dd6fdf77ad",
      "title": "Cartoony Rubber Ducky"
    },
    "generator": "Sketchfab-14.58.0",
    "version": "2.0"
  },
  "bufferViews": [
    {
      "buffer": 0,
      "byteLength": 29712,
      "name": "floatBufferViews",
      "target": 34963,
      "byteOffset": 0
    },
    {
      "buffer": 0,
      "byteLength": 11240,
      "byteOffset": 29712,
      "byteStride": 8,
      "name": "floatBufferViews",
      "target": 34962
    },
    {
      "buffer": 0,
      "byteLength": 33720,
      "byteOffset": 40952,
      "byteStride": 12,
      "name": "floatBufferViews",
      "target": 34962
    },
    {
      "buffer": 0,
      "byteLength": 22480,
      "byteOffset": 74672,
      "byteStride": 16,
      "name": "floatBufferViews",
      "target": 34962
    },
    {
      "buffer": 0,
      "byteOffset": 97152,
      "byteLength": 202344
    },
    {
      "buffer": 0,
      "byteOffset": 299496,
      "byteLength": 515520
    },
    {
      "buffer": 0,
      "byteOffset": 815016,
      "byteLength": 420721
    }
  ],
  "buffers": [
    {
      "name": "duck",
      "byteLength": 1235744,
      "uri": "data:application/octet-stream;base64,"
    }
  ],
  "images": [
    {
      "name": "lambert2SG_baseColor",
      "bufferView": 4,
      "mimeType": "image/jpeg"
    },
    {
      "name": "lambert2SG_metallicRoughness",
      "bufferView": 5,
      "mimeType": "image/png"
    },
    {
      "name": "lambert2SG_normal",
      "bufferView": 6,
      "mimeType": "image/png"
    }
  ],
  "materials": [
    {
      "doubleSided": true,
      "name": "lambert2SG",
      "normalTexture": {
        "index": 2,
        "texCoord": 0
      },
      "pbrMetallicRoughness": {
        "baseColorTexture": {
          "index": 0,
          "texCoord": 0
        },
        "metallicRoughnessTexture": {
          "index": 1,
          "texCoord": 0
        },
        "baseColorFactor": [
          1,
          1,
          1,
          1
        ],
        "metallicFactor": 1,
        "roughnessFactor": 1
      },
      "emissiveFactor": [
        0,
        0,
        0
      ],
      "alphaMode": "OPAQUE"
    }
  ],
  "meshes": [
    {
      "name": "Object_0",
      "primitives": [
        {
          "attributes": {
            "NORMAL": 1,
            "POSITION": 0,
            "TANGENT": 2,
            "TEXCOORD_0": 3
          },
          "indices": 4,
          "material": 0,
          "mode": 4
        }
      ]
    }
  ],
  "nodes": [
    {
      "children": [
        1
      ],
      "matrix": [
        0.03331158682703972,
        0,
        0,
        0,
        0,
        7.396658136435912e-18,
        -0.03331158682703972,
        0,
        0,
        0.03331158682703972,
        7.396658136435912e-18,
        0,
        0,
        0,
        0,
        1
      ],
      "name": "Sketchfab_model"
    },
    {
      "children": [
        2
      ],
      "name": "Duck.obj.cleaner.materialmerger.gles"
    },
    {
      "mesh": 0,
      "name": "Object_2"
    }
  ],
  "samplers": [
    {
      "magFilter": 9729,
      "minFilter": 9987,
      "wrapS": 10497,
      "wrapT": 10497
    }
  ],
  "scene": 0,
  "scenes": [
    {
      "name": "Sketchfab_Scene",
      "nodes": [
        0
      ]
    }
  ],
  "textures": [
    {
      "sampler": 0,
      "source": 0
    },
    {
      "sampler": 0,
      "source": 1
    },
    {
      "sampler": 0,
      "source": 2
    }
  ]
}
