<svg width="12" height="12" viewBox="0 0 12 12" fill="none" xmlns="http://www.w3.org/2000/svg">
<path d="M5.09478 1.92837C5.45471 1.16162 6.54529 1.16162 6.90522 1.92838L7.62751 3.46704C7.76908 3.76861 8.05153 3.97989 8.38082 4.0305L10.0777 4.2913C10.882 4.41491 11.2098 5.39611 10.6413 5.97831L9.35273 7.29804C9.13091 7.52523 9.03017 7.84425 9.08128 8.15763L9.37643 9.96718C9.51082 10.7911 8.63611 11.4073 7.90555 11.0033L6.48392 10.2171C6.1828 10.0506 5.8172 10.0506 5.51608 10.2171L4.09445 11.0033C3.36389 11.4073 2.48918 10.7911 2.62357 9.96718L2.91872 8.15763C2.96983 7.84425 2.86909 7.52523 2.64727 7.29804L1.35869 5.97831C0.790243 5.39611 1.11804 4.41491 1.92229 4.2913L3.61918 4.0305C3.94847 3.97989 4.23092 3.76861 4.37249 3.46704L5.09478 1.92837Z" stroke="#6A6A6A" stroke-width="1.4" stroke-linecap="round" stroke-linejoin="round"/>
</svg>
