<svg width="20" height="20" viewBox="0 0 20 20" fill="none" xmlns="http://www.w3.org/2000/svg">
<path d="M6.66659 9.16671V13.3334M6.66659 6.66671V6.67504M9.99992 13.3334V9.16671M13.3333 13.3334V10.8334C13.3333 10.3913 13.1577 9.96742 12.8451 9.65486C12.5325 9.3423 12.1086 9.16671 11.6666 9.16671C11.2246 9.16671 10.8006 9.3423 10.4881 9.65486C10.1755 9.96742 9.99992 10.3913 9.99992 10.8334M4.99992 3.33337H14.9999C15.9204 3.33337 16.6666 4.07957 16.6666 5.00004V15C16.6666 15.9205 15.9204 16.6667 14.9999 16.6667H4.99992C4.07944 16.6667 3.33325 15.9205 3.33325 15V5.00004C3.33325 4.07957 4.07944 3.33337 4.99992 3.33337Z" stroke="#6A6A6A" stroke-width="1.6" stroke-linecap="round" stroke-linejoin="round"/>
</svg>
